<svg width="40" height="22" viewBox="0 0 40 22" fill="none" xmlns="http://www.w3.org/2000/svg">
<path d="M13.3333 20.4286C13.3333 20.0118 13.5089 19.6121 13.8215 19.3174C14.134 19.0227 14.558 18.8571 15 18.8571H25C25.442 18.8571 25.866 19.0227 26.1785 19.3174C26.4911 19.6121 26.6667 20.0118 26.6667 20.4286C26.6667 20.8453 26.4911 21.245 26.1785 21.5397C25.866 21.8344 25.442 22 25 22H15C14.558 22 14.134 21.8344 13.8215 21.5397C13.5089 21.245 13.3333 20.8453 13.3333 20.4286ZM6.66667 11C6.66667 10.5832 6.84226 10.1835 7.15482 9.88883C7.46738 9.59413 7.89131 9.42857 8.33333 9.42857H31.6667C32.1087 9.42857 32.5326 9.59413 32.8452 9.88883C33.1577 10.1835 33.3333 10.5832 33.3333 11C33.3333 11.4168 33.1577 11.8165 32.8452 12.1112C32.5326 12.4059 32.1087 12.5714 31.6667 12.5714H8.33333C7.89131 12.5714 7.46738 12.4059 7.15482 12.1112C6.84226 11.8165 6.66667 11.4168 6.66667 11ZM0 1.57143C0 1.15466 0.175595 0.754961 0.488156 0.460261C0.800716 0.165561 1.22464 0 1.66667 0H38.3333C38.7754 0 39.1993 0.165561 39.5118 0.460261C39.8244 0.754961 40 1.15466 40 1.57143C40 1.9882 39.8244 2.3879 39.5118 2.6826C39.1993 2.9773 38.7754 3.14286 38.3333 3.14286H1.66667C1.22464 3.14286 0.800716 2.9773 0.488156 2.6826C0.175595 2.3879 0 1.9882 0 1.57143Z" fill="#FEFEFE"/>
</svg>
