<svg width="46" height="46" viewBox="0 0 46 46" fill="none" xmlns="http://www.w3.org/2000/svg">
<path d="M36.429 0.420875C36.1653 0.151389 35.8077 0 35.4349 0C35.062 0 34.7044 0.151389 34.4407 0.420875L29.8087 5.15594L40.2342 15.8134L44.8662 11.0812C44.9971 10.9477 45.101 10.7891 45.1719 10.6144C45.2428 10.4398 45.2793 10.2526 45.2793 10.0635C45.2793 9.87443 45.2428 9.6872 45.1719 9.51256C45.101 9.33792 44.9971 9.1793 44.8662 9.04577L36.429 0.420875ZM38.2458 17.846L27.8204 7.18854L9.53991 25.8758H10.1221C10.495 25.8758 10.8527 26.0273 11.1164 26.2968C11.3801 26.5664 11.5283 26.932 11.5283 27.3133V28.7508H12.9344C13.3074 28.7508 13.6651 28.9022 13.9288 29.1718C14.1925 29.4414 14.3406 29.807 14.3406 30.1883V31.6257H15.7468C16.1198 31.6257 16.4774 31.7772 16.7411 32.0468C17.0049 32.3163 17.153 32.682 17.153 33.0632V34.5007H18.5592C18.9321 34.5007 19.2898 34.6521 19.5535 34.9217C19.8172 35.1913 19.9654 35.5569 19.9654 35.9382V36.5333L38.2458 17.846ZM17.243 39.3163C17.1838 39.1554 17.1534 38.985 17.153 38.8131V37.3757H15.7468C15.3739 37.3757 15.0162 37.2242 14.7525 36.9546C14.4888 36.6851 14.3406 36.3194 14.3406 35.9382V34.5007H12.9344C12.5615 34.5007 12.2038 34.3493 11.9401 34.0797C11.6764 33.8101 11.5283 33.4445 11.5283 33.0632V31.6257H10.1221C9.74913 31.6257 9.39146 31.4743 9.12775 31.2047C8.86403 30.9351 8.71588 30.5695 8.71588 30.1883V28.7508H7.30969C7.14158 28.7504 6.97488 28.7193 6.81753 28.6588L6.31411 29.1705C6.1801 29.3085 6.07486 29.4728 6.00475 29.6535L0.379997 44.0283C0.277709 44.2896 0.252669 44.5757 0.307981 44.8514C0.363294 45.127 0.496526 45.38 0.69116 45.579C0.885795 45.7779 1.13327 45.9141 1.40291 45.9707C1.67255 46.0272 1.9525 46.0016 2.20804 45.8971L16.2699 40.1471C16.4467 40.0755 16.6075 39.9679 16.7424 39.8309L17.243 39.3163Z" fill="#FEFEFE"/>
</svg>
