<svg width="35" height="34" viewBox="0 0 35 34" fill="none" xmlns="http://www.w3.org/2000/svg">
<path d="M3.11263 34C3.11263 34 0.279297 34 0.279297 31.1667C0.279297 28.3333 3.11263 19.8333 17.2793 19.8333C31.446 19.8333 34.2793 28.3333 34.2793 31.1667C34.2793 34 31.446 34 31.446 34H3.11263ZM17.2793 17C19.5336 17 21.6956 16.1045 23.2897 14.5104C24.8838 12.9163 25.7793 10.7543 25.7793 8.5C25.7793 6.24566 24.8838 4.08365 23.2897 2.48959C21.6956 0.895533 19.5336 0 17.2793 0C15.025 0 12.8629 0.895533 11.2689 2.48959C9.67483 4.08365 8.7793 6.24566 8.7793 8.5C8.7793 10.7543 9.67483 12.9163 11.2689 14.5104C12.8629 16.1045 15.025 17 17.2793 17Z" fill="#FEFEFE"/>
</svg>
