<svg width="41" height="42" viewBox="0 0 41 42" fill="none" xmlns="http://www.w3.org/2000/svg">
<path d="M7.70996 3.64453V11.7881C7.71005 12.6593 8.05592 13.4952 8.67188 14.1113C9.28794 14.7274 10.1239 15.0731 10.9951 15.0732H26.9961C27.5484 15.0732 27.9961 14.6255 27.9961 14.0732C27.9958 13.5212 27.5482 13.0733 26.9961 13.0732H10.9951C10.6543 13.0731 10.3269 12.9383 10.0859 12.6973C9.84505 12.4562 9.71005 12.1288 9.70996 11.7881V3.64453H27.4385L27.6152 3.65137C28.4924 3.70724 29.3213 4.08515 29.9395 4.71582L29.9463 4.72266L38.6318 13.4092L38.6396 13.416C39.3124 14.0753 39.6973 14.9742 39.7109 15.916V39.2178C39.7109 39.6951 39.6151 40.1626 39.4346 40.5947C39.4135 40.6166 39.3936 40.6396 39.3721 40.6611C38.5148 41.5184 37.3521 42 36.1396 42H32.5674V27.7881C32.5672 26.9169 32.2215 26.0809 31.6055 25.4648C30.9894 24.8489 30.1534 24.503 29.2822 24.5029H10.9951C10.1239 24.5031 9.28795 24.8488 8.67188 25.4648C8.05581 26.0809 7.7101 26.9168 7.70996 27.7881V42H4.13867C2.92621 42 1.76262 41.5185 0.905273 40.6611C0.884252 40.6401 0.864318 40.6181 0.84375 40.5967C0.662765 40.1641 0.56646 39.6957 0.566406 39.2178V7.21582C0.566558 6.26878 0.94264 5.3601 1.6123 4.69043C2.28197 4.02076 3.19066 3.64469 4.1377 3.64453H7.70996ZM29.2822 26.5029C29.623 26.503 29.9504 26.638 30.1914 26.8789C30.4324 27.1199 30.5672 27.4473 30.5674 27.7881V42H9.70996V27.7881C9.7101 27.4473 9.84494 27.1199 10.0859 26.8789C10.3269 26.6379 10.6543 26.5031 10.9951 26.5029H29.2822ZM27.4531 0.855469C28.6589 0.872644 29.8093 1.36622 30.6533 2.22754L39.3398 10.9131C39.7338 11.2992 40.0497 11.75 40.2793 12.2402C40.2041 12.1567 40.1265 12.0744 40.0459 11.9951H40.0469L31.3604 3.30859H31.3594C30.3315 2.26397 28.9334 1.6655 27.4678 1.64453H4.1377C2.66023 1.64469 1.24298 2.23163 0.198242 3.27637C0.130172 3.34444 0.0641476 3.41421 0 3.48535C0.222783 3.01064 0.527425 2.57326 0.905273 2.19531C1.76262 1.33797 2.92621 0.855469 4.13867 0.855469H27.4531Z" fill="#FEFEFE"/>
</svg>
