<svg width="52" height="36" viewBox="0 0 52 36" fill="none" xmlns="http://www.w3.org/2000/svg">
<path d="M34.125 18C34.125 20.17 33.269 22.251 31.7452 23.7854C30.2215 25.3198 28.1549 26.1818 26 26.1818C23.8451 26.1818 21.7785 25.3198 20.2548 23.7854C18.731 22.251 17.875 20.17 17.875 18C17.875 15.83 18.731 13.749 20.2548 12.2146C21.7785 10.6802 23.8451 9.81818 26 9.81818C28.1549 9.81818 30.2215 10.6802 31.7452 12.2146C33.269 13.749 34.125 15.83 34.125 18Z" fill="#FEFEFE"/>
<path d="M0 18C0 18 9.75 0 26 0C42.25 0 52 18 52 18C52 18 42.25 36 26 36C9.75 36 0 18 0 18ZM26 29.4545C29.0168 29.4545 31.9101 28.2477 34.0433 26.0996C36.1766 23.9514 37.375 21.0379 37.375 18C37.375 14.9621 36.1766 12.0486 34.0433 9.90041C31.9101 7.75227 29.0168 6.54545 26 6.54545C22.9832 6.54545 20.0899 7.75227 17.9567 9.90041C15.8234 12.0486 14.625 14.9621 14.625 18C14.625 21.0379 15.8234 23.9514 17.9567 26.0996C20.0899 28.2477 22.9832 29.4545 26 29.4545Z" fill="#FEFEFE"/>
</svg>
