<svg width="41" height="11" viewBox="0 0 41 11" fill="none" xmlns="http://www.w3.org/2000/svg">
<path d="M0.47075 5.648C0.47075 4.98667 0.588083 4.35733 0.82275 3.76C1.07875 3.16267 1.42008 2.65067 1.84675 2.224C2.27342 1.79733 2.78542 1.456 3.38275 1.2C3.98008 0.944 4.62008 0.816 5.30275 0.816C5.98542 0.816 6.61475 0.944 7.19075 1.2C7.78808 1.456 8.30008 1.79733 8.72675 2.224C9.17475 2.65067 9.52675 3.16267 9.78275 3.76C10.0388 4.35733 10.1668 4.98667 10.1668 5.648C10.1668 6.33067 10.0388 6.97067 9.78275 7.568C9.52675 8.144 9.17475 8.64533 8.72675 9.072C8.30008 9.49867 7.78808 9.82933 7.19075 10.064C6.61475 10.32 5.98542 10.448 5.30275 10.448C4.62008 10.448 3.98008 10.32 3.38275 10.064C2.78542 9.82933 2.27342 9.49867 1.84675 9.072C1.42008 8.64533 1.07875 8.144 0.82275 7.568C0.588083 6.97067 0.47075 6.33067 0.47075 5.648ZM15.6583 5.648C15.6583 4.98667 15.7756 4.35733 16.0103 3.76C16.2663 3.16267 16.6076 2.65067 17.0343 2.224C17.4609 1.79733 17.9729 1.456 18.5703 1.2C19.1676 0.944 19.8076 0.816 20.4903 0.816C21.1729 0.816 21.8023 0.944 22.3783 1.2C22.9756 1.456 23.4876 1.79733 23.9143 2.224C24.3623 2.65067 24.7143 3.16267 24.9703 3.76C25.2263 4.35733 25.3543 4.98667 25.3543 5.648C25.3543 6.33067 25.2263 6.97067 24.9703 7.568C24.7143 8.144 24.3623 8.64533 23.9143 9.072C23.4876 9.49867 22.9756 9.82933 22.3783 10.064C21.8023 10.32 21.1729 10.448 20.4903 10.448C19.8076 10.448 19.1676 10.32 18.5703 10.064C17.9729 9.82933 17.4609 9.49867 17.0343 9.072C16.6076 8.64533 16.2663 8.144 16.0103 7.568C15.7756 6.97067 15.6583 6.33067 15.6583 5.648ZM30.8458 5.648C30.8458 4.98667 30.9631 4.35733 31.1978 3.76C31.4538 3.16267 31.7951 2.65067 32.2218 2.224C32.6484 1.79733 33.1604 1.456 33.7578 1.2C34.3551 0.944 34.9951 0.816 35.6778 0.816C36.3604 0.816 36.9898 0.944 37.5658 1.2C38.1631 1.456 38.6751 1.79733 39.1018 2.224C39.5498 2.65067 39.9018 3.16267 40.1578 3.76C40.4138 4.35733 40.5418 4.98667 40.5418 5.648C40.5418 6.33067 40.4138 6.97067 40.1578 7.568C39.9018 8.144 39.5498 8.64533 39.1018 9.072C38.6751 9.49867 38.1631 9.82933 37.5658 10.064C36.9898 10.32 36.3604 10.448 35.6778 10.448C34.9951 10.448 34.3551 10.32 33.7578 10.064C33.1604 9.82933 32.6484 9.49867 32.2218 9.072C31.7951 8.64533 31.4538 8.144 31.1978 7.568C30.9631 6.97067 30.8458 6.33067 30.8458 5.648Z" fill="#FEFEFE"/>
</svg>
