<svg width="39" height="38" viewBox="0 0 39 38" fill="none" xmlns="http://www.w3.org/2000/svg">
<path d="M28.0553 24.5651C30.3549 21.4267 31.3849 17.5356 30.9392 13.6702C30.4935 9.80491 28.6049 6.25042 25.6514 3.71792C22.6978 1.18541 18.8971 -0.138356 15.0096 0.0114584C11.122 0.161273 7.43442 1.77362 4.68447 4.52592C1.93452 7.27823 0.325039 10.9675 0.178027 14.8557C0.031016 18.7439 1.35731 22.5442 3.89158 25.4963C6.42584 28.4485 9.98117 30.3348 13.8463 30.7778C17.7114 31.2208 21.6012 30.1879 24.7376 27.8857H24.7352C24.8049 27.9807 24.8824 28.0718 24.9679 28.1589L34.1113 37.3036C34.5567 37.7493 35.1608 37.9998 35.7908 38C36.4208 38.0002 37.025 37.7501 37.4707 37.3048C37.9163 36.8594 38.1668 36.2552 38.167 35.6251C38.1672 34.995 37.9172 34.3907 37.4718 33.945L28.3284 24.8003C28.2436 24.7143 28.1523 24.6372 28.0553 24.5651ZM28.6681 15.4347C28.6681 17.1503 28.3302 18.849 27.6738 20.434C27.0173 22.019 26.0552 23.4591 24.8423 24.6722C23.6294 25.8853 22.1894 26.8476 20.6047 27.5041C19.0199 28.1606 17.3214 28.4985 15.606 28.4985C13.8907 28.4985 12.1922 28.1606 10.6074 27.5041C9.02267 26.8476 7.58273 25.8853 6.36981 24.6722C5.15689 23.4591 4.19475 22.019 3.53832 20.434C2.88189 18.849 2.54404 17.1503 2.54404 15.4347C2.54404 11.9699 3.92021 8.6471 6.36981 6.19716C8.81941 3.74721 12.1418 2.37084 15.606 2.37084C19.0703 2.37084 22.3927 3.74721 24.8423 6.19716C27.2919 8.6471 28.6681 11.9699 28.6681 15.4347Z" fill="#FEFEFE"/>
</svg>
