<svg width="34" height="34" viewBox="0 0 34 34" fill="none" xmlns="http://www.w3.org/2000/svg">
<path d="M17 0C17.5636 0 18.1041 0.223884 18.5026 0.622398C18.9011 1.02091 19.125 1.56141 19.125 2.125V14.875H31.875C32.4386 14.875 32.9791 15.0989 33.3776 15.4974C33.7761 15.8959 34 16.4364 34 17C34 17.5636 33.7761 18.1041 33.3776 18.5026C32.9791 18.9011 32.4386 19.125 31.875 19.125H19.125V31.875C19.125 32.4386 18.9011 32.9791 18.5026 33.3776C18.1041 33.7761 17.5636 34 17 34C16.4364 34 15.8959 33.7761 15.4974 33.3776C15.0989 32.9791 14.875 32.4386 14.875 31.875V19.125H2.125C1.56141 19.125 1.02091 18.9011 0.622398 18.5026C0.223884 18.1041 0 17.5636 0 17C0 16.4364 0.223884 15.8959 0.622398 15.4974C1.02091 15.0989 1.56141 14.875 2.125 14.875H14.875V2.125C14.875 1.56141 15.0989 1.02091 15.4974 0.622398C15.8959 0.223884 16.4364 0 17 0Z" fill="#FEFEFE"/>
</svg>
