<svg width="36" height="41" viewBox="0 0 36 41" fill="none" xmlns="http://www.w3.org/2000/svg">
<path d="M2.8593 2.73333C2.14526 2.73333 1.46046 3.02131 0.955551 3.53391C0.450645 4.04651 0.166992 4.74174 0.166992 5.46667V8.2C0.166992 8.92492 0.450645 9.62016 0.955551 10.1328C1.46046 10.6454 2.14526 10.9333 2.8593 10.9333H4.20545V35.5333C4.20545 36.9832 4.77276 38.3736 5.78257 39.3988C6.79238 40.424 8.16198 41 9.59007 41H25.7439C27.172 41 28.5416 40.424 29.5514 39.3988C30.5612 38.3736 31.1285 36.9832 31.1285 35.5333V10.9333H32.4747C33.1887 10.9333 33.8735 10.6454 34.3784 10.1328C34.8833 9.62016 35.167 8.92492 35.167 8.2V5.46667C35.167 4.74174 34.8833 4.04651 34.3784 3.53391C33.8735 3.02131 33.1887 2.73333 32.4747 2.73333H23.0516C23.0516 2.00841 22.768 1.31317 22.263 0.800575C21.7581 0.287975 21.0733 0 20.3593 0L14.9747 0C14.2606 0 13.5758 0.287975 13.0709 0.800575C12.566 1.31317 12.2824 2.00841 12.2824 2.73333H2.8593ZM10.9362 13.6667C11.2932 13.6667 11.6356 13.8107 11.8881 14.067C12.1405 14.3233 12.2824 14.6709 12.2824 15.0333V34.1667C12.2824 34.5291 12.1405 34.8767 11.8881 35.133C11.6356 35.3893 11.2932 35.5333 10.9362 35.5333C10.5792 35.5333 10.2368 35.3893 9.98435 35.133C9.7319 34.8767 9.59007 34.5291 9.59007 34.1667V15.0333C9.59007 14.6709 9.7319 14.3233 9.98435 14.067C10.2368 13.8107 10.5792 13.6667 10.9362 13.6667ZM17.667 13.6667C18.024 13.6667 18.3664 13.8107 18.6189 14.067C18.8713 14.3233 19.0131 14.6709 19.0131 15.0333V34.1667C19.0131 34.5291 18.8713 34.8767 18.6189 35.133C18.3664 35.3893 18.024 35.5333 17.667 35.5333C17.31 35.5333 16.9676 35.3893 16.7151 35.133C16.4627 34.8767 16.3208 34.5291 16.3208 34.1667V15.0333C16.3208 14.6709 16.4627 14.3233 16.7151 14.067C16.9676 13.8107 17.31 13.6667 17.667 13.6667ZM25.7439 15.0333V34.1667C25.7439 34.5291 25.6021 34.8767 25.3496 35.133C25.0972 35.3893 24.7548 35.5333 24.3978 35.5333C24.0407 35.5333 23.6983 35.3893 23.4459 35.133C23.1934 34.8767 23.0516 34.5291 23.0516 34.1667V15.0333C23.0516 14.6709 23.1934 14.3233 23.4459 14.067C23.6983 13.8107 24.0407 13.6667 24.3978 13.6667C24.7548 13.6667 25.0972 13.8107 25.3496 14.067C25.6021 14.3233 25.7439 14.6709 25.7439 15.0333Z" fill="#FEFEFE"/>
</svg>
