<svg width="35" height="30" viewBox="0 0 35 30" fill="none" xmlns="http://www.w3.org/2000/svg">
<path d="M1.08026 19.517C1.36676 19.517 1.64153 19.6274 1.84412 19.824C2.04671 20.0206 2.16052 20.2872 2.16052 20.5653V25.8068C2.16052 26.3628 2.38814 26.8961 2.79332 27.2893C3.19849 27.6825 3.74803 27.9034 4.32104 27.9034H30.2472C30.8203 27.9034 31.3698 27.6825 31.775 27.2893C32.1801 26.8961 32.4078 26.3628 32.4078 25.8068V20.5653C32.4078 20.2872 32.5216 20.0206 32.7242 19.824C32.9268 19.6274 33.2015 19.517 33.488 19.517C33.7745 19.517 34.0493 19.6274 34.2519 19.824C34.4545 20.0206 34.5683 20.2872 34.5683 20.5653V25.8068C34.5683 26.9189 34.113 27.9855 33.3027 28.7718C32.4923 29.5582 31.3933 30 30.2472 30H4.32104C3.17503 30 2.07595 29.5582 1.2656 28.7718C0.455251 27.9855 0 26.9189 0 25.8068V20.5653C0 20.2872 0.113813 20.0206 0.3164 19.824C0.518988 19.6274 0.793756 19.517 1.08026 19.517Z" fill="#FEFEFE"/>
<path d="M16.5193 23.6137C16.6196 23.7113 16.7389 23.7888 16.8701 23.8417C17.0013 23.8945 17.142 23.9217 17.2841 23.9217C17.4262 23.9217 17.5669 23.8945 17.6982 23.8417C17.8294 23.7888 17.9486 23.7113 18.0489 23.6137L24.5305 17.3239C24.7333 17.1271 24.8473 16.8601 24.8473 16.5817C24.8473 16.3033 24.7333 16.0363 24.5305 15.8395C24.3277 15.6427 24.0525 15.5321 23.7657 15.5321C23.4788 15.5321 23.2037 15.6427 23.0009 15.8395L18.3644 20.3409V1.90544C18.3644 1.62741 18.2506 1.36077 18.048 1.16417C17.8454 0.967578 17.5706 0.857132 17.2841 0.857132C16.9976 0.857132 16.7229 0.967578 16.5203 1.16417C16.3177 1.36077 16.2039 1.62741 16.2039 1.90544V20.3409L11.5674 15.8395C11.3646 15.6427 11.0894 15.5321 10.8026 15.5321C10.5157 15.5321 10.2406 15.6427 10.0377 15.8395C9.8349 16.0363 9.72095 16.3033 9.72095 16.5817C9.72095 16.8601 9.8349 17.1271 10.0377 17.3239L16.5193 23.6137Z" fill="#FEFEFE"/>
</svg>
