<svg width="52" height="39" viewBox="0 0 52 39" fill="none" xmlns="http://www.w3.org/2000/svg">
<path d="M22.75 39C22.75 39 19.5 39 19.5 35.75C19.5 32.5 22.75 22.75 35.75 22.75C48.75 22.75 52 32.5 52 35.75C52 39 48.75 39 48.75 39H22.75ZM35.75 19.5C38.3359 19.5 40.8158 18.4728 42.6443 16.6443C44.4728 14.8158 45.5 12.3359 45.5 9.75C45.5 7.16414 44.4728 4.68419 42.6443 2.85571C40.8158 1.02723 38.3359 0 35.75 0C33.1641 0 30.6842 1.02723 28.8557 2.85571C27.0272 4.68419 26 7.16414 26 9.75C26 12.3359 27.0272 14.8158 28.8557 16.6443C30.6842 18.4728 33.1641 19.5 35.75 19.5ZM16.952 39C16.4704 37.9853 16.2302 36.873 16.25 35.75C16.25 31.3463 18.46 26.8125 22.542 23.66C20.5048 23.0309 18.3819 22.7239 16.25 22.75C3.25 22.75 0 32.5 0 35.75C0 39 3.25 39 3.25 39H16.952ZM14.625 19.5C16.7799 19.5 18.8465 18.644 20.3702 17.1202C21.894 15.5965 22.75 13.5299 22.75 11.375C22.75 9.22012 21.894 7.15349 20.3702 5.62976C18.8465 4.10602 16.7799 3.25 14.625 3.25C12.4701 3.25 10.4035 4.10602 8.87976 5.62976C7.35602 7.15349 6.5 9.22012 6.5 11.375C6.5 13.5299 7.35602 15.5965 8.87976 17.1202C10.4035 18.644 12.4701 19.5 14.625 19.5Z" fill="#FEFEFE"/>
</svg>
