<svg width="38" height="36" viewBox="0 0 38 36" fill="none" xmlns="http://www.w3.org/2000/svg">
<path d="M32.7999 15.4967L36.7836 17.4897C37.2946 17.7452 37.2946 18.4746 36.7836 18.7301L19.2041 27.5199C19.0113 27.6157 18.7991 27.6655 18.5839 27.6655C18.3687 27.6655 18.1564 27.6157 17.9636 27.5199L0.384123 18.7301C0.269283 18.6723 0.17277 18.5836 0.105337 18.4741C0.0379031 18.3646 0.00219727 18.2385 0.00219727 18.1099C0.00219727 17.9813 0.0379031 17.8553 0.105337 17.7458C0.17277 17.6362 0.269283 17.5476 0.384123 17.4897L4.37018 15.4967L16.7209 21.6732C17.894 22.2586 19.2761 22.2586 20.4468 21.6732L32.7999 15.4967Z" fill="#FEFEFE"/>
<path d="M32.8 23.8289L36.7837 25.8219C37.2947 26.0774 37.2947 26.8068 36.7837 27.0623L19.2042 35.8544C19.0115 35.9502 18.7992 36 18.584 36C18.3688 36 18.1565 35.9502 17.9638 35.8544L0.38424 27.0623C0.269401 27.0044 0.172888 26.9158 0.105454 26.8063C0.0380208 26.6968 0.00231495 26.5707 0.00231495 26.4421C0.00231495 26.3135 0.0380208 26.1874 0.105454 26.0779C0.172888 25.9684 0.269401 25.8798 0.38424 25.8219L4.3703 23.8289L16.721 30.0054C17.8941 30.5908 19.2762 30.5908 20.4469 30.0054L32.7977 23.8266L32.8 23.8289ZM17.9638 0.367831C18.1565 0.272065 18.3688 0.222229 18.584 0.222229C18.7992 0.222229 19.0115 0.272065 19.2042 0.367831L36.7837 9.15759C36.8985 9.21585 36.9948 9.30474 37.0622 9.41442C37.1295 9.5241 37.1651 9.65027 37.1651 9.77896C37.1651 9.90765 37.1295 10.0338 37.0622 10.1435C36.9948 10.2532 36.8985 10.3421 36.7837 10.4003L19.2042 19.1878C19.0115 19.2835 18.7992 19.3334 18.584 19.3334C18.3688 19.3334 18.1565 19.2835 17.9638 19.1878L0.38424 10.4003C0.268792 10.3427 0.171689 10.254 0.10382 10.1442C0.0359505 10.0345 0 9.90801 0 9.77896C0 9.64992 0.0359505 9.52343 0.10382 9.41368C0.171689 9.30392 0.268792 9.21525 0.38424 9.15759L17.9638 0.367831Z" fill="#FEFEFE"/>
</svg>
