<svg width="50" height="40" viewBox="0 0 50 40" fill="none" xmlns="http://www.w3.org/2000/svg">
<path d="M33.7187 35.4938L28.675 30.4469C26.7245 31.1442 24.6161 31.2734 22.5951 30.8193C20.574 30.3652 18.7235 29.3465 17.2588 27.8818C15.7941 26.4171 14.7754 24.5666 14.3213 22.5456C13.8672 20.5245 13.9964 18.4161 14.6938 16.4656L8.25625 10.0281C2.93125 14.7625 0 20.1438 0 20.1438C0 20.1438 9.375 37.3313 25 37.3313C28.0015 37.3234 30.9693 36.6979 33.7187 35.4938ZM16.2813 4.79375C19.0307 3.58957 21.9985 2.9641 25 2.95625C40.625 2.95625 50 20.1438 50 20.1438C50 20.1438 47.0656 25.5219 41.7469 30.2625L35.3031 23.8188C36.0005 21.8683 36.1296 19.7598 35.6755 17.7388C35.2214 15.7178 34.2028 13.8673 32.7381 12.4026C31.2734 10.9379 29.4228 9.91919 27.4018 9.4651C25.3808 9.011 23.2724 9.14014 21.3219 9.8375L16.2813 4.79375Z" fill="white"/>
<path d="M17.2657 19.0375C17.0938 20.2385 17.2039 21.463 17.5874 22.614C17.9709 23.765 18.6172 24.8109 19.4751 25.6687C20.333 26.5266 21.3788 27.1729 22.5298 27.5564C23.6808 27.9399 24.9053 28.05 26.1063 27.8781L17.2657 19.0375ZM32.7344 21.25L23.8938 12.4063C25.0948 12.2344 26.3193 12.3445 27.4703 12.728C28.6213 13.1115 29.6671 13.7578 30.525 14.6157C31.3829 15.4735 32.0292 16.5194 32.4127 17.6704C32.7962 18.8214 32.9063 20.0459 32.7344 21.2469V21.25ZM42.6438 40L5.1438 2.50001L7.3563 0.287506L44.8563 37.7875L42.6438 40Z" fill="white"/>
</svg>
