<svg width="33" height="36" viewBox="0 0 33 36" fill="none" xmlns="http://www.w3.org/2000/svg">
<path d="M13.1995 0.624947C13.4137 0.892108 13.5449 1.21867 13.5763 1.56267C13.6077 1.90668 13.5377 2.25242 13.3755 2.55548C12.103 4.94355 11.4387 7.62087 11.444 10.3406C11.444 19.388 18.6553 26.7141 27.543 26.7141C28.7046 26.7126 29.8288 26.5926 30.9155 26.3541C31.248 26.2813 31.594 26.3099 31.9107 26.4363C32.2274 26.5627 32.501 26.7813 32.6974 27.0651C32.9053 27.3604 33.0114 27.718 32.999 28.0817C32.9867 28.4453 32.8566 28.7945 32.6293 29.0744C30.9037 31.242 28.727 32.9885 26.2578 34.1867C23.7886 35.3848 21.0891 36.0043 18.3562 36C8.21451 36 0 27.6434 0 17.3472C0 9.59808 4.65064 2.95148 11.2724 0.13444C11.6021 -0.00888695 11.9685 -0.0385453 12.3162 0.0499472C12.6639 0.13844 12.9739 0.340274 13.1995 0.624947ZM10.6872 2.94923C8.1412 4.34631 6.01275 6.42271 4.52804 8.95783C3.04333 11.4929 2.2578 14.3921 2.25492 17.3472C2.25492 26.3923 9.46847 33.7184 18.3562 33.7184C20.4844 33.7217 22.5921 33.2935 24.5576 32.4585C26.523 31.6235 28.3071 30.3984 29.8068 28.8539C29.0646 28.9484 28.3101 28.9956 27.543 28.9956C17.4014 28.9956 9.18908 20.639 9.18908 10.3428C9.18908 7.71705 9.72146 5.21727 10.6872 2.94923Z" fill="white"/>
</svg>
