<svg width="31" height="36" viewBox="0 0 31 36" fill="none" xmlns="http://www.w3.org/2000/svg">
<path d="M2.38462 2.4C1.75218 2.4 1.14564 2.65286 0.698438 3.10294C0.251235 3.55303 0 4.16348 0 4.8V7.2C0 7.83652 0.251235 8.44697 0.698438 8.89706C1.14564 9.34714 1.75218 9.6 2.38462 9.6H3.57692V31.2C3.57692 32.473 4.07939 33.6939 4.9738 34.5941C5.8682 35.4943 7.08128 36 8.34615 36H22.6538C23.9187 36 25.1318 35.4943 26.0262 34.5941C26.9206 33.6939 27.4231 32.473 27.4231 31.2V9.6H28.6154C29.2478 9.6 29.8544 9.34714 30.3016 8.89706C30.7488 8.44697 31 7.83652 31 7.2V4.8C31 4.16348 30.7488 3.55303 30.3016 3.10294C29.8544 2.65286 29.2478 2.4 28.6154 2.4H20.2692C20.2692 1.76348 20.018 1.15303 19.5708 0.702944C19.1236 0.252856 18.5171 0 17.8846 0L13.1154 0C12.4829 0 11.8764 0.252856 11.4292 0.702944C10.982 1.15303 10.7308 1.76348 10.7308 2.4H2.38462ZM9.53846 12C9.85468 12 10.1579 12.1264 10.3816 12.3515C10.6052 12.5765 10.7308 12.8817 10.7308 13.2V30C10.7308 30.3183 10.6052 30.6235 10.3816 30.8485C10.1579 31.0736 9.85468 31.2 9.53846 31.2C9.22224 31.2 8.91897 31.0736 8.69537 30.8485C8.47177 30.6235 8.34615 30.3183 8.34615 30V13.2C8.34615 12.8817 8.47177 12.5765 8.69537 12.3515C8.91897 12.1264 9.22224 12 9.53846 12ZM15.5 12C15.8162 12 16.1195 12.1264 16.3431 12.3515C16.5667 12.5765 16.6923 12.8817 16.6923 13.2V30C16.6923 30.3183 16.5667 30.6235 16.3431 30.8485C16.1195 31.0736 15.8162 31.2 15.5 31.2C15.1838 31.2 14.8805 31.0736 14.6569 30.8485C14.4333 30.6235 14.3077 30.3183 14.3077 30V13.2C14.3077 12.8817 14.4333 12.5765 14.6569 12.3515C14.8805 12.1264 15.1838 12 15.5 12ZM22.6538 13.2V30C22.6538 30.3183 22.5282 30.6235 22.3046 30.8485C22.081 31.0736 21.7778 31.2 21.4615 31.2C21.1453 31.2 20.8421 31.0736 20.6184 30.8485C20.3948 30.6235 20.2692 30.3183 20.2692 30V13.2C20.2692 12.8817 20.3948 12.5765 20.6184 12.3515C20.8421 12.1264 21.1453 12 21.4615 12C21.7778 12 22.081 12.1264 22.3046 12.3515C22.5282 12.5765 22.6538 12.8817 22.6538 13.2Z" fill="#FEFEFE"/>
</svg>
