<svg width="46" height="46" viewBox="0 0 46 46" fill="none" xmlns="http://www.w3.org/2000/svg">
<path d="M46 23C46 29.1 43.5768 34.9501 39.2635 39.2635C34.9501 43.5768 29.1 46 23 46C16.9 46 11.0499 43.5768 6.73654 39.2635C2.42321 34.9501 0 29.1 0 23C0 16.9 2.42321 11.0499 6.73654 6.73654C11.0499 2.42321 16.9 0 23 0C29.1 0 34.9501 2.42321 39.2635 6.73654C43.5768 11.0499 46 16.9 46 23ZM23 10.0625C23 9.68125 22.8485 9.31562 22.579 9.04603C22.3094 8.77645 21.9437 8.625 21.5625 8.625C21.1813 8.625 20.8156 8.77645 20.546 9.04603C20.2765 9.31562 20.125 9.68125 20.125 10.0625V25.875C20.1251 26.1284 20.1921 26.3772 20.3194 26.5964C20.4466 26.8155 20.6295 26.9971 20.8495 27.1227L30.912 32.8727C31.2422 33.0512 31.6291 33.0934 31.9901 32.9904C32.351 32.8874 32.6573 32.6472 32.8436 32.3213C33.0298 31.9954 33.0812 31.6096 32.9867 31.2463C32.8922 30.8831 32.6594 30.5711 32.338 30.3773L23 25.0413V10.0625Z" fill="#FEFEFE"/>
</svg>
